<svg width="337" height="319" viewBox="0 0 337 319" fill="none" xmlns="http://www.w3.org/2000/svg">
<path d="M326.84 136.292L190.071 8.30931C178.226 -2.76977 159.507 -2.76977 147.283 8.30931L61.323 88.9192C83.8628 97.3239 101.436 116.044 107.932 139.348H159.507H210.703H224.073C230.185 139.348 234.767 144.314 234.767 150.045V167.619C234.767 173.731 229.801 178.316 224.073 178.316H210.703V203.148C210.703 209.261 205.732 213.845 200.004 213.845H170.585C164.473 213.845 159.89 208.879 159.89 203.148V178.316H108.315C101.82 202.002 84.2464 221.104 61.323 229.127L147.667 309.737C159.507 320.816 178.226 320.816 190.455 309.737L326.84 181.754C339.83 169.529 339.83 148.899 326.84 136.292Z" fill="#E10600"/>
<path d="M36.1083 123.685C30.38 123.685 25.0301 125.214 20.0639 127.506C8.60222 133.236 0.582642 145.079 0.582642 158.833C0.582642 172.204 7.84017 183.665 18.9183 189.778C23.8845 192.452 29.6179 193.98 35.7297 193.98C55.2111 193.98 70.877 178.317 70.877 158.833C71.6391 139.731 55.5947 123.685 36.1083 123.685Z" fill="#E10600"/>
</svg>
